<?xml version="1.0" standalone="no"?><!DOCTYPE svg PUBLIC "-//W3C//DTD SVG 1.1//EN" "http://www.w3.org/Graphics/SVG/1.1/DTD/svg11.dtd"><svg t="1552037663088" class="icon" style="" viewBox="0 0 1024 1024" version="1.1" xmlns="http://www.w3.org/2000/svg" p-id="1545" xmlns:xlink="http://www.w3.org/1999/xlink" width="200" height="200"><defs><style type="text/css"></style></defs><path d="M908.12416 253.67808c0-2.1056-1.99424-9.89568-2.40256-11.8784-1.62688-7.95264-4.56448-9.04448-11.05792-13.42976a30.36928 30.36928 0 0 0-17.05856-5.21216H145.12384a30.40896 30.40896 0 0 0-17.07008 5.21216c-6.4896 4.38528-11.2064 11.21024-12.83072 19.16032a30.66496 30.66496 0 0 0-0.61952 6.14784v457.79968h793.52064V253.67808zM624.50304 741.9968c-5.52448 7.6288-13.15584 15.26144-21.57824 15.26144H419.80416c-11.2704 0-21.0048-6.17344-26.29504-15.26144H55.53152c4.1728 18.24512 17.32736 45.7216 58.912 45.79456 0.05248 0 0.09728-0.01408 0.16-0.01408h793.52064c0.0512 0 0.09728 0.01408 0.15232 0.01408 41.58208-0.07424 54.73664-27.54944 58.90944-45.79456H624.50304z" fill="#FFFFFF" p-id="1546"></path><path d="M663.96032 574.13632h122.08v61.04064h-122.08z" fill="#F79A6F" p-id="1547"></path><path d="M663.96032 345.23648h122.08v183.11936h-122.08z" fill="#86AEDD" p-id="1548"></path><path d="M236.67968 345.23648h381.50016v289.94048H236.67968z" fill="#85AB70" p-id="1549"></path><path d="M145.12 253.67808v457.79968h15.26016V268.93696h701.95968v442.5408h15.25888V253.67808H145.12z m366.24-7.63136c4.2112 0 7.63136-3.42016 7.63136-7.63008s-3.42016-7.63008-7.63136-7.63008c-4.2112 0-7.63008 3.42016-7.63008 7.63008s3.41888 7.63008 7.63008 7.63008" fill="#313E4B" p-id="1550"></path><path d="M282.46016 345.23648H267.2v15.26016h15.26016v-15.26016z m-45.78048 15.26016h15.26016v-15.26016h-15.26016v15.26016z m76.3008-15.26016h-15.26016v15.26016h15.26016v-15.26016z m-30.52032 61.04064h15.26016v-15.26016h-15.26016v15.26016z m15.26016-15.26016h15.26016V375.7568h-15.26016v15.26016z m-61.04064 0h15.26016V375.7568h-15.26016v15.26016z m30.52032 0h-15.25888v15.26016h15.25888v-15.26016z m15.26016-15.26016H267.2v15.26016h15.26016V375.7568z m15.26016-15.26016h-15.26016v15.25888h15.26016v-15.25888z m-30.52032 0h-15.25888v15.25888h15.25888v-15.25888z m15.26016 76.3008H267.2v15.25888h15.26016v-15.25888z m0 0h15.26016v-15.25888h-15.26016v15.25888z m15.26016-15.26016h15.26016v-15.26016h-15.26016v15.26016z m-61.04064 30.51904h15.26016v-15.25888h-15.26016v15.25888z m30.52032-30.51904h-15.25888v15.25888h15.25888v-15.25888z m15.26016-15.26016H267.2v15.26016h15.26016v-15.26016z m15.26016 45.7792h15.26016v-15.25888h-15.26016v15.25888z m-61.04064-30.51904h15.26016v-15.26016h-15.26016v15.26016z m45.78048 76.3008h15.26016v-15.26016h-15.26016v15.26016z m15.26016-15.26144h15.26016v-15.26016h-15.26016v15.26016z m-61.04064 0h15.26016v-15.26016h-15.26016v15.26016z m30.52032 0h-15.25888v15.26016h15.25888v-15.26016z m15.26016-15.26016H267.2v15.26016h15.26016v-15.26016z m0 0h15.26016v-15.26016h-15.26016v15.26016z m-15.26016-15.26016h-15.25888v15.26016h15.25888v-15.26016z m15.26016 76.29952H267.2v15.26144h15.26016v-15.26144z m0 0h15.26016v-15.25888h-15.26016v15.25888z m15.26016-15.25888h15.26016v-15.25888h-15.26016v15.25888z m-61.04064 30.52032h15.26016v-15.26144h-15.26016v15.26144z m30.52032-30.52032h-15.25888v15.25888h15.25888v-15.25888z m15.26016-15.25888H267.2v15.25888h15.26016v-15.25888z m15.26016 45.7792h15.26016v-15.26144h-15.26016v15.26144z m-61.04064-30.52032h15.26016v-15.25888h-15.26016v15.25888z m45.78048 76.3008h15.26016v-15.26144h-15.26016v15.26144z m15.26016-15.26144h15.26016v-15.25888h-15.26016v15.25888z m-61.04064 0h15.26016v-15.25888h-15.26016v15.25888z m30.52032 0h-15.25888v15.26144h15.25888v-15.26144z m15.26016-15.25888H267.2v15.25888h15.26016v-15.25888z m0 0h15.26016v-15.26016h-15.26016v15.26016z m-15.26016-15.26016h-15.25888v15.26016h15.25888v-15.26016z m0 91.55968h15.26016V619.9168H267.2v15.26016z m15.26016-15.26016h15.26016v-15.26016h-15.26016v15.26016z m15.26016-15.26016h15.26016v-15.25888h-15.26016v15.25888z m-61.04064 30.52032h15.26016V619.9168h-15.26016v15.26016z m15.26144-15.26016h15.25888v-15.26016h-15.25888v15.26016z m15.25888-15.26016h15.26016v-15.25888H267.2v15.25888z m30.52032 30.52032h15.26016V619.9168h-15.26016v15.26016z m-61.04064-30.52032h15.26016v-15.25888h-15.26016v15.25888z m106.81984-259.42016h-15.25888v15.26016h15.25888v-15.26016z m-30.51904 61.04064h15.26016v-15.26016h-15.26016v15.26016z m30.51904-30.52032h-15.25888v15.26016h15.25888V375.7568z m-30.51904 0h15.26016v-15.25888h-15.26016v15.25888z m0 61.04064h15.26016v-15.25888h-15.26016v15.25888z m30.51904-30.52032h-15.25888v15.26016h15.25888v-15.26016z m0 30.52032h-15.25888v15.25888h15.25888v-15.25888z m-30.51904 61.04064h15.26016v-15.26016h-15.26016v15.26016z m30.51904-30.5216h-15.25888v15.26016h15.25888v-15.26016z m-30.51904 0h15.26016v-15.26016h-15.26016v15.26016z m0 61.03936h15.26016v-15.25888h-15.26016v15.25888z m30.51904-30.51776h-15.25888v15.25888h15.25888v-15.25888z m0 30.51776h-15.25888v15.26144h15.25888v-15.26144z m-30.51904 61.04192h15.26016v-15.26144h-15.26016v15.26144z m30.51904-30.52032h-15.25888v15.25888h15.25888v-15.25888z m-30.51904 0h15.26016v-15.26016h-15.26016v15.26016z m0 61.03936h15.26016v-15.26016h-15.26016v15.26016z m30.51904-30.51904h-15.25888v15.25888h15.25888v-15.25888z m0 30.51904h-15.25888v15.26144h15.25888V619.9168z" fill="" p-id="1551"></path><path d="M999.68 726.73664c0-8.42624-6.8288-15.25888-15.26016-15.25888h-45.78048V253.67808c0-33.7088-27.33184-61.04064-61.04064-61.04064H145.12c-33.7088 0-61.03936 27.33184-61.03936 61.04064v457.79968H38.29888C29.8752 711.47776 23.04 718.3104 23.04 726.73664c0 0.02688 0.0064 0.04096 0.0064 0.064H23.04C23.04 758.4512 42.17472 818.304 114.59968 818.304v-0.00768h793.52064v0.00768c72.4224 0 91.55968-59.85408 91.55968-91.50336h-0.00768c0-0.02304 0.00768-0.03712 0.00768-0.064M114.59968 253.67808c0-16.85504 13.66528-30.52032 30.52032-30.52032h732.47872c16.85632 0 30.5216 13.66528 30.5216 30.52032v457.79968H114.59968V253.67808z m793.68192 534.11328c-0.05632 0-0.11008-0.01408-0.16128-0.01408H114.59968c-0.05632 0-0.10752 0.01408-0.16 0.01408-41.58464-0.07424-54.73152-27.55712-58.912-45.79456h337.98528c5.29152 9.08416 15.01824 15.26144 26.28864 15.26144h183.12064c8.43008 0 16.06144-7.63264 21.57824-15.26144h342.69184c-4.17664 18.23744-17.32992 45.72032-58.91072 45.79456" fill="" p-id="1552"></path></svg>