<?xml version="1.0" standalone="no"?><!DOCTYPE svg PUBLIC "-//W3C//DTD SVG 1.1//EN" "http://www.w3.org/Graphics/SVG/1.1/DTD/svg11.dtd"><svg t="1552037640562" class="icon" style="" viewBox="0 0 1024 1024" version="1.1" xmlns="http://www.w3.org/2000/svg" p-id="1409" xmlns:xlink="http://www.w3.org/1999/xlink" width="200" height="200"><defs><style type="text/css"></style></defs><path d="M419.80032 521.21984h488.32v-45.78048h-488.32v45.78048zM114.59968 620.4096h274.68032V475.44064H114.59968v144.96896z m106.81984-61.03936h61.04064c8.43008 0 15.26016 6.8288 15.26016 15.26016 0 8.42368-6.8288 15.26016-15.26016 15.26016h-61.04064c-8.43136 0-15.26016-6.83648-15.26016-15.26016 0.00128-8.43136 6.8288-15.26016 15.26016-15.26016M114.59968 795.90016h274.68032V650.92992H114.59968v144.97024z m106.81984-61.04064h61.04064c8.43008 0 15.26016 6.83648 15.26016 15.26016 0 8.43136-6.8288 15.26016-15.26016 15.26016h-61.04064c-8.43136 0-15.26016-6.8288-15.26016-15.26016 0.00128-8.42368 6.8288-15.26016 15.26016-15.26016m76.3008-381.49888h-61.04064v91.55968h61.04064v-91.55968z m518.84032-137.34016c0-8.43008-6.82624-15.26016-15.26016-15.26016H526.62016c-8.43392 0-15.26016 6.8288-15.26016 15.26016v167.86048h305.20064V216.02048z m-320.4608 228.89984h335.71968c8.4352 0 15.26016-6.83648 15.26016-15.26016s-6.82496-15.26016-15.26016-15.26016H496.09984c-8.43008 0-15.25888 6.83648-15.25888 15.26016 0 8.4224 6.8288 15.26016 15.25888 15.26016" fill="#FFFFFF" p-id="1410"></path><path d="M541.88032 231.28064h76.29952v122.08h-76.29952z" fill="#85AB70" p-id="1411"></path><path d="M114.59968 620.4096h274.68032V475.44064H114.59968v144.96896z m167.86048-30.51904h-61.04064c-8.43136 0-15.26016-6.83648-15.26016-15.26016 0-8.43136 6.8288-15.26016 15.26016-15.26016h61.04064c8.43008 0 15.26016 6.8288 15.26016 15.26016 0 8.42368-6.83008 15.26016-15.26016 15.26016M114.59968 795.90016h274.68032V650.92992H114.59968v144.97024z m106.81984-61.04064h61.04064c8.43008 0 15.26016 6.83648 15.26016 15.26016 0 8.43136-6.8288 15.26016-15.26016 15.26016h-61.04064c-8.43136 0-15.26016-6.8288-15.26016-15.26016 0.00128-8.42368 6.8288-15.26016 15.26016-15.26016" fill="#F7D54A" p-id="1412"></path><path d="M633.44 231.28064h152.60032v122.08H633.44z" fill="#86AEDD" p-id="1413"></path><path d="M236.67968 383.87968h61.04064v61.04064h-61.04064z" fill="#EE6A56" p-id="1414"></path><path d="M679.22048 521.21984h15.26016v-15.26016h-15.26016v15.26016z m183.11936 0h15.26016v-15.26016h-15.26016v15.26016z m30.52032 0h15.26016v-15.26016h-15.26016v15.26016z m-183.12064 0h15.26016v-15.26016h-15.26016v15.26016z m122.08 0h15.26016v-15.26016h-15.26016v15.26016z m-91.55968 0h15.26144v-15.26016h-15.26144v15.26016z m61.04064 0h15.26016v-15.26016h-15.26016v15.26016z m-30.52032 0h15.26016v-15.26016h-15.26016v15.26016z m15.26016-45.7792h-15.26016v15.26016h15.26016v-15.26016z m30.52032 0h-15.26016v15.26016h15.26016v-15.26016z m-366.24 30.51904h15.26016v-15.26016h-15.26016v15.26016z m396.75904-30.51904h-15.26016v15.26016h15.26016v-15.26016z m30.52032 0h-15.26016v15.26016h15.26016v-15.26016z m-122.07872 0h-15.26144v15.26016h15.26144v-15.26016z m-106.82112 45.7792h15.26016v-15.26016h-15.26016v15.26016z m76.29952-45.7792h-15.26016v15.26016h15.26016v-15.26016z m-305.19936 30.51904h15.26016v-15.26016h-15.26016v15.26016z m15.26016 15.26016h15.26016v-15.26016h-15.26016v15.26016z m15.26016-45.7792h-15.26016v15.26016h15.26016v-15.26016z m106.81856 45.7792h15.26144v-15.26016h-15.26144v15.26016z m137.34144-45.7792h-15.26016v15.26016h15.26016v-15.26016z m-61.04064 30.51904h15.26016v-15.26016h-15.26016v15.26016z m0-30.51904h-15.26016v15.26016h15.26016v-15.26016z m30.52032 30.51904h15.26016v-15.26016h-15.26016v15.26016z m0-30.51904h-15.26016v15.26016h15.26016v-15.26016z m-91.55968 0h-15.26144v15.26016h15.26144v-15.26016z m30.51904 0h-15.26016v15.26016h15.26016v-15.26016z m15.26016 45.7792h15.26016v-15.26016h-15.26016v15.26016z m-45.7792-15.26016h15.26016v-15.26016h-15.26016v15.26016z m122.08 0h15.26016v-15.26016h-15.26016v15.26016z m152.59904 0h15.26016v-15.26016h-15.26016v15.26016z m-30.51904 0h15.26016v-15.26016h-15.26016v15.26016z m76.29952-15.26016h15.26016v-15.26016h-15.26016v15.26016z m-15.26016 15.26016h15.26016v-15.26016h-15.26016v15.26016z m-152.60032 0h15.26016v-15.26016h-15.26016v15.26016z m61.04064 0h15.26016v-15.26016h-15.26016v15.26016z m-30.51904 0h15.25888v-15.26016h-15.25888v15.26016z m-152.6016 0h15.26016v-15.26016h-15.26016v15.26016zM511.36 475.44064h-15.26016v15.26016H511.36v-15.26016z m-30.51904 30.51904h15.25888v-15.26016h-15.25888v15.26016z m61.03936 0h15.25888v-15.26016h-15.25888v15.26016z m-76.29952-15.26016h15.26016v-15.26016h-15.26016v15.26016z m76.29952-15.25888h-15.26016v15.26016h15.26016v-15.26016z m-45.78048 45.7792H511.36v-15.26016h-15.26016v15.26016z m91.55968 0h15.26016v-15.26016h-15.26016v15.26016z m-122.07872 0h15.26016v-15.26016h-15.26016v15.26016z m61.03936 0h15.26016v-15.26016h-15.26016v15.26016zM511.36 505.95968h15.26016v-15.26016H511.36v15.26016z m-213.63968 0h15.26016v-15.26016h-15.26016v15.26016z m30.52032 0h15.25888v-15.26016h-15.25888v15.26016z m45.7792-15.26016h15.26016v-15.26016h-15.26016v15.26016z m-15.26016 15.26016h15.26016v-15.26016h-15.26016v15.26016z m-61.03936-30.51904h-15.26016v15.26016h15.26016v-15.26016z m30.52032 0h-15.26016v15.26016h15.26016v-15.26016z m30.51904 0h-15.26016v15.26016h15.26016v-15.26016z m-91.55968 0h-15.26016v15.26016h15.26016v-15.26016z m-30.52032 0h-15.26016v15.26016h15.26016v-15.26016z m-30.51904 0h-15.26016v15.26016h15.26016v-15.26016z m-61.04064 30.51904h15.26016v-15.26016h-15.26016v15.26016z m76.29952 15.26016h15.26016v-15.26016h-15.26016v15.26016z m-61.03936 0h15.26016v-15.26016h-15.26016v15.26016z m30.52032 0h15.26016v-15.26016h-15.26016v15.26016z m61.03936 0h15.26016v-15.26016h-15.26016v15.26016z m91.55968 0h15.26016v-15.26016h-15.26016v15.26016z m-30.51904 0h15.26016v-15.26016h-15.26016v15.26016z m-30.52032 0h15.26016v-15.26016h-15.26016v15.26016z m-106.81984-15.26016h15.26016v-15.26016h-15.26016v15.26016z m0-30.51904h-15.26016v15.26016h15.26016v-15.26016z m198.37952 45.7792h15.26016v-15.26016h-15.26016v15.26016z m-167.8592-15.26016h15.26016v-15.26016h-15.26016v15.26016z m-91.56096 0h15.26016v-15.26016H114.59968v15.26016z m15.26016 15.26016h15.25888v-15.26016h-15.25888v15.26016z m15.26016-45.7792h-15.25888v15.26016h15.25888v-15.26016z m91.55968 30.51904h15.26016v-15.26016h-15.26016v15.26016z m30.52032 0h15.26016v-15.26016H267.2v15.26016z m0 144.97024h-15.26016v15.26016h15.26016v-15.26016z m122.08 30.52032h-15.26016v15.26016h15.26016v-15.26016z m-152.60032 0h15.26016v-15.26016h-15.26016v15.26016z m0-30.52032h-15.26016v15.26016h15.26016v-15.26016z m-30.51904 30.52032h15.26016v-15.26016h-15.26016v15.26016z m167.8592-15.26016h15.26016v-15.26016h-15.26016v15.26016z m-15.26016 15.26016h15.26016v-15.26016h-15.26016v15.26016z m-91.55968 0h15.26016v-15.26016H267.2v15.26016z m30.52032 0h15.26016v-15.26016h-15.26016v15.26016z m30.52032-30.52032h-15.26016v15.26016h15.26016v-15.26016z m30.51904 0h-15.26016v15.26016h15.26016v-15.26016z m-61.03936 0h-15.26016v15.26016h15.26016v-15.26016z m30.52032 30.52032h15.25888v-15.26016h-15.25888v15.26016z m-137.34016 15.26016h15.26016v-15.26016h-15.26016v15.26016z m-45.78048-45.78048h-15.25888v15.26016h15.25888v-15.26016z m-30.52032 30.52032h15.26016v-15.26016H114.59968v15.26016z m91.56096-30.52032h-15.26016v15.26016h15.26016v-15.26016z m-30.52032 0h-15.26016v15.26016h15.26016v-15.26016z m-30.52032 30.52032h15.26016v-15.26016h-15.26016v15.26016z m-15.26016 15.26016h15.25888v-15.26016h-15.25888v15.26016z m91.55968 0h15.26016v-15.26016h-15.26016v15.26016z m61.04064 0h15.26016v-15.26016h-15.26016v15.26016z m30.52032 0h15.26016v-15.26016h-15.26016v15.26016z m-61.04064 0h15.26016v-15.26016h-15.26016v15.26016z m-76.29952-15.26016h15.26016v-15.26016h-15.26016v15.26016z m167.8592 15.26016h15.26016v-15.26016h-15.26016v15.26016z m-183.11936 0h15.26016v-15.26016h-15.26016v15.26016z" fill="" p-id="1415"></path><path d="M221.41952 765.37984h61.04064c8.43008 0 15.26016-6.8288 15.26016-15.26016 0-8.42368-6.8288-15.26016-15.26016-15.26016h-61.04064c-8.43136 0-15.26016 6.83648-15.26016 15.26016 0.00128 8.43136 6.8288 15.26016 15.26016 15.26016m0-175.48928h61.04064c8.43008 0 15.26016-6.83648 15.26016-15.26016 0-8.43136-6.8288-15.26016-15.26016-15.26016h-61.04064c-8.43136 0-15.26016 6.8288-15.26016 15.26016 0.00128 8.42368 6.8288 15.26016 15.26016 15.26016m763.00032-144.97024h-109.47968c1.69216-4.77568 2.65984-9.90208 2.65984-15.26016 0-19.92064-12.7488-36.83072-30.52032-43.1168V216.02048c0-25.28512-20.49024-45.78048-45.78048-45.78048H526.62016c-25.28512 0-45.7792 20.49408-45.7792 45.78048v170.52416c-17.77152 6.28608-30.52032 23.19616-30.52032 43.1168 0 5.35808 0.96896 10.4832 2.66368 15.26016h-124.74368v-106.81984c0-8.43136-6.8288-15.26016-15.26016-15.26016h-91.55968c-8.43136 0-15.26016 6.8288-15.26016 15.26016v15.25888c-25.28512 0-45.78048 20.49536-45.78048 45.78048 0 25.28512 20.49536 45.78048 45.78048 45.78048H38.30016c-8.43136 0-15.26016 6.8288-15.26016 15.26016 0 8.42368 6.8288 15.26016 15.26016 15.26016h45.78048v366.24c0 8.42368 6.8288 15.26016 15.26016 15.26016 8.43008 0 15.25888-6.83648 15.25888-15.26016v-15.26016h274.68032v15.26016c0 8.42368 6.8288 15.26016 15.25888 15.26016 8.43136 0 15.26016-6.83648 15.26016-15.26016V551.74016h488.32v289.94048c0 8.42368 6.82624 15.26016 15.26016 15.26016 8.4352 0 15.26016-6.83648 15.26016-15.26016V475.44064h45.78048c8.43392 0 15.26016-6.83648 15.26016-15.26016 0-8.43136-6.82624-15.26016-15.26016-15.26016m-747.74016-91.55968h61.04064v91.55968h-61.04064v-91.55968z m-45.7792 45.7792c0-8.42368 6.8288-15.26016 15.26016-15.26016v30.52032c-8.43136 0-15.26016-6.8288-15.26016-15.26016m198.37952 396.76032H114.59968V650.92992h274.68032v144.97024z m0-175.49056H114.59968V475.44064h274.68032v144.96896zM511.36 216.02048c0-8.43008 6.82624-15.26016 15.26016-15.26016h274.68032c8.43392 0 15.26016 6.8288 15.26016 15.26016v167.86048H511.36V216.02048zM496.09984 414.4h335.71968c8.4352 0 15.26016 6.83648 15.26016 15.26016s-6.82496 15.26016-15.26016 15.26016H496.09984c-8.43008 0-15.25888-6.83648-15.25888-15.26016s6.8288-15.26016 15.25888-15.26016m412.02048 106.81984h-488.32v-45.78048h488.32v45.78048z" fill="" p-id="1416"></path></svg>