<?xml version="1.0" standalone="no"?><!DOCTYPE svg PUBLIC "-//W3C//DTD SVG 1.1//EN" "http://www.w3.org/Graphics/SVG/1.1/DTD/svg11.dtd"><svg t="1552037679386" class="icon" style="" viewBox="0 0 1024 1024" version="1.1" xmlns="http://www.w3.org/2000/svg" p-id="1679" xmlns:xlink="http://www.w3.org/1999/xlink" width="200" height="200"><defs><style type="text/css"></style></defs><path d="M880.4416 63.50592H137.36064c-21.04448 0-38.10688 17.0624-38.10688 38.10688v590.65472h819.29472V101.61152c-0.00128-21.04448-17.06368-38.1056-38.10688-38.1056" fill="#FFFFFF" p-id="1680"></path><path d="M327.89376 177.82528c-84.18688 0-152.42624 68.2496-152.42624 152.42624 0 84.18688 68.24064 152.42624 152.42624 152.42624 84.18688 0 152.42624-68.23936 152.42624-152.42624 0-84.17664-68.23936-152.42624-152.42624-152.42624" fill="#EE6A56" p-id="1681"></path><path d="M689.9072 130.19264l-95.26656 152.42624h190.53312z" fill="#86AEDD" p-id="1682"></path><path d="M537.48096 406.46528H689.9072v152.42752H537.48096z" fill="#85AB70" p-id="1683"></path><path d="M826.01216 419.90016c-14.9568-22.48576-18.90048-30.39488-2.3552-46.9824 7.35488-7.36 7.35488-19.31392 0-26.69184-7.3536-7.37792-19.2896-7.37792-26.64448 0-39.1808 39.26016-16.12672 73.9072-2.35264 94.60608 14.95936 22.48704 18.90688 30.3936 2.35264 46.9824-7.3536 7.36768-7.3536 19.31392 0 26.69184a18.7968 18.7968 0 0 0 26.64448 0c39.1872-39.26016 16.13312-73.90592 2.3552-94.60608" fill="#F7D54A" p-id="1684"></path><path d="M99.25376 692.26624h19.05408v-19.05408H99.25376v19.05408z m0-38.1056h19.05408v-19.05408H99.25376v19.05408z m19.0528 19.05152h19.05408v-19.0528H118.30656v19.0528z m19.05408 19.05408h19.0528v-19.05408h-19.0528v19.05408z m19.0528-57.15968h-19.0528v19.05408h19.0528v-19.05408z m0 38.1056h19.05408v-19.0528h-19.05408v19.0528z m19.0528 19.05408h19.0528v-19.05408h-19.0528v19.05408z m19.05408-57.15968h-19.0528v19.05408h19.0528v-19.05408z m0 38.1056h19.05408v-19.0528h-19.05408v19.0528z m19.0528 19.05408h19.0528v-19.05408h-19.0528v19.05408z m19.05408-57.15968h-19.0528v19.05408h19.0528v-19.05408z m0 38.1056h19.0528v-19.0528H232.6272v19.0528z m19.0528 19.05408h19.05408v-19.05408h-19.05408v19.05408z m19.05408-57.15968h-19.05408v19.05408h19.05408v-19.05408z m0 38.1056h19.0528v-19.0528h-19.0528v19.0528z m19.0528 19.05408h19.0528v-19.05408h-19.0528v19.05408z m19.0528-57.15968h-19.0528v19.05408h19.0528v-19.05408z m0 38.1056h19.05408v-19.0528h-19.05408v19.0528z m19.05408 19.05408h19.0528v-19.05408h-19.0528v19.05408z m19.0528-57.15968h-19.0528v19.05408h19.0528v-19.05408z m0 38.1056h19.05408v-19.0528h-19.05408v19.0528z m19.05408 19.05408h19.0528v-19.05408h-19.0528v19.05408z m19.0528-57.15968h-19.0528v19.05408h19.0528v-19.05408z m0 38.1056h19.05408v-19.0528h-19.05408v19.0528z m19.0528 19.05408h19.05408v-19.05408h-19.05408v19.05408z m19.05408-57.15968h-19.05408v19.05408h19.05408v-19.05408z m0 38.1056h19.0528v-19.0528h-19.0528v19.0528z m19.0528 19.05408h19.05408v-19.05408h-19.05408v19.05408z m19.05408-57.15968h-19.05408v19.05408h19.05408v-19.05408z m0 38.1056h19.0528v-19.0528h-19.0528v19.0528z m19.0528 19.05408h19.0528v-19.05408H480.32v19.05408z m19.05408-57.15968H480.32v19.05408h19.0528v-19.05408z m0 38.1056h19.05408v-19.0528h-19.05408v19.0528z m19.0528 19.05408h19.05408v-19.05408h-19.05408v19.05408z m19.05408-57.15968h-19.05408v19.05408h19.05408v-19.05408z m0 38.1056h19.0528v-19.0528h-19.0528v19.0528z m19.0528 19.05408h19.05408v-19.05408h-19.05408v19.05408z m19.05408-57.15968h-19.05408v19.05408h19.05408v-19.05408z m0 38.1056h19.0528v-19.0528h-19.0528v19.0528z m19.0528 19.05408h19.05408v-19.05408h-19.05408v19.05408z m19.0528-57.15968h-19.05408v19.05408h19.05408v-19.05408z m0 38.1056h19.05408v-19.0528h-19.05408v19.0528z m19.05408 19.05408h19.05408v-19.05408h-19.05408v19.05408z m19.05408-57.15968h-19.05408v19.05408h19.05408v-19.05408z m0 38.1056h19.0528v-19.0528H651.8016v19.0528z m19.05152 19.05408h19.05408v-19.05408h-19.05408v19.05408z m19.05408-57.15968h-19.05408v19.05408h19.05408v-19.05408z m0 38.1056h19.05408v-19.0528H689.9072v19.0528z m19.05408 19.05408h19.05408v-19.05408h-19.05408v19.05408z m19.05408-57.15968h-19.05408v19.05408h19.05408v-19.05408z m0 38.1056h19.05408v-19.0528h-19.05408v19.0528z m19.0528 19.05408h19.05152v-19.05408h-19.05152v19.05408z m19.05152-57.15968h-19.05152v19.05408h19.05152v-19.05408z m0 38.1056h19.05408v-19.0528h-19.05408v19.0528z m19.05408 19.05408h19.05408v-19.05408h-19.05408v19.05408z m19.05408-57.15968h-19.05408v19.05408h19.05408v-19.05408z m0 38.1056h19.05408v-19.0528h-19.05408v19.0528z m19.0528 19.05408h19.05408v-19.05408h-19.05408v19.05408z m19.05408-57.15968h-19.05408v19.05408h19.05408v-19.05408z m0 38.1056h19.0528v-19.0528h-19.0528v19.0528z m19.0528 19.05408h19.05408v-19.05408h-19.05408v19.05408z m19.05408-57.15968h-19.05408v19.05408h19.05408v-19.05408z m0 38.1056h19.05408v-19.0528h-19.05408v19.0528z m38.1056 0H899.4944v19.05408h19.0528v-19.05408z m0-38.1056H899.4944v19.05408h19.0528v-19.05408z" fill="" p-id="1685"></path><path d="M975.70688 692.26624h-19.05408V101.61152c0-42.08768-34.1248-76.21376-76.21248-76.21376H137.36064c-42.08896 0-76.21376 34.1248-76.21376 76.21376v590.65472H42.09408c-10.52672 0-19.05408 8.52224-19.05408 19.05408s8.52736 19.05408 19.05408 19.05408h430.33728L238.20928 964.59648a19.01184 19.01184 0 0 0-5.58208 13.46944c0 10.53184 8.52736 19.05408 19.0528 19.05408 5.25696 0 10.01984-2.12992 13.47072-5.5808l243.74912-243.7504 243.74912 243.7504A18.9888 18.9888 0 0 0 766.1184 997.12c10.528 0 19.05408-8.52224 19.05408-19.05408 0-5.25568-2.13376-10.01856-5.5808-13.46944L545.3696 730.37312h430.33728c10.528 0 19.05408-8.52224 19.05408-19.05408s-8.52608-19.0528-19.05408-19.0528m-57.15968 0H99.25376V101.61152c0-21.04448 17.06368-38.10688 38.10688-38.10688h743.08096c21.0432 0 38.10688 17.0624 38.10688 38.10688v590.65472z" fill="" p-id="1686"></path></svg>