<?xml version="1.0" standalone="no"?><!DOCTYPE svg PUBLIC "-//W3C//DTD SVG 1.1//EN" "http://www.w3.org/Graphics/SVG/1.1/DTD/svg11.dtd"><svg t="1552037594492" class="icon" style="" viewBox="0 0 1024 1024" version="1.1" xmlns="http://www.w3.org/2000/svg" p-id="1270" xmlns:xlink="http://www.w3.org/1999/xlink" width="200" height="200"><defs><style type="text/css"></style></defs><path d="M825.28 363.76064v-122.08H57.92v470.88c0 19.26272 15.61728 34.88 34.88 34.88h558.08v-313.92c0-38.52416 31.23456-69.76 69.75872-69.76h104.64128z m0-226.72c0-19.26144-15.61728-34.88-34.88128-34.88H92.8c-19.26272 0-34.88 15.61856-34.88 34.88v69.76h767.36v-69.76z m-139.52 749.92c0 19.26272 15.61728 34.87872 34.87872 34.87872H929.92c19.26272 0 34.88128-15.616 34.88128-34.87872v-52.32128H685.76v52.32128z m244.16-488.32H720.63872c-19.26144 0-34.87872 15.61728-34.87872 34.88v52.32h279.04128v-52.32c0-19.26272-15.61856-34.88-34.88128-34.88M685.76 799.76064h279.04128v-279.04H685.76v279.04z" fill="#FFFFFF" p-id="1271"></path><path d="M825.28 852.08064c-14.4512 0-26.15936 11.70816-26.15936 26.16064s11.70688 26.16064 26.15936 26.16064 26.16064-11.70816 26.16064-26.16064-11.70944-26.16064-26.16064-26.16064" fill="#EE6A56" p-id="1272"></path><path d="M92.8 520.72064h331.36v-244.16H92.8v244.16z m627.83872 122.08H929.92v-87.2H720.63872v87.2z" fill="#85AB70" p-id="1273"></path><path d="M790.39872 363.76064v-87.2H459.04v244.16H650.88v-87.2c0-38.52416 31.23456-69.76 69.75872-69.76h69.76z m-69.76 401.12H929.92v-87.20256H720.63872v87.20256z" fill="#F7D54A" p-id="1274"></path><path d="M92.8 555.60064h558.08v156.96h-558.08z" fill="#86AEDD" p-id="1275"></path><path d="M790.39872 433.52064c-4.81024 0-8.71936 3.90912-8.71936 8.72064s3.90912 8.71936 8.71936 8.71936c4.8128 0 8.72192-3.90784 8.72192-8.71936s-3.90912-8.72064-8.72192-8.72064m69.76128 0h-43.60064c-4.81152 0-8.72064 3.90912-8.72064 8.72064s3.90912 8.71936 8.72064 8.71936H860.16c4.81152 0 8.72064-3.90784 8.72064-8.71936s-3.90912-8.72064-8.72064-8.72064M110.24 137.04064c-9.63968 0-17.44 7.80416-17.44 17.44s7.80032 17.44 17.44 17.44 17.44-7.80544 17.44-17.44-7.80032-17.44-17.44-17.44m52.32 0c-9.63968 0-17.44 7.80416-17.44 17.44s7.80032 17.44 17.44 17.44c9.64096 0 17.44-7.80544 17.44-17.44s-7.80032-17.44-17.44-17.44m52.32 0c-9.63968 0-17.44 7.80416-17.44 17.44s7.80032 17.44 17.44 17.44 17.44-7.80544 17.44-17.44-7.80032-17.44-17.44-17.44" fill="" p-id="1276"></path><path d="M92.8 450.95936h17.44v-17.44H92.8v17.44z m17.44-17.43872H127.68v-17.44H110.24v17.44z m17.44-17.44h17.44v-17.44H127.68v17.44z m-34.88 0h17.44v-17.44H92.8v17.44z m52.32 52.32H127.68v17.44h17.44v-17.44z m0 34.88H127.68v17.44h17.44v-17.44z m0-69.76H127.68v17.44h17.44v-17.44z m-34.88 69.76H127.68v-17.44H110.24v17.44zM92.8 485.84064h17.44v-17.44H92.8v17.44z m17.44-17.44H127.68v-17.44H110.24v17.44zM92.8 520.72064h17.44v-17.44H92.8v17.44z m34.88-209.28h17.44v-17.44H127.68v17.44z m-17.44-17.44H127.68v-17.44H110.24v17.44z m0 34.87872H92.8v17.44h17.44v-17.44z m0 34.88128H92.8v17.44h17.44v-17.44z m34.88 0H127.68v17.44h17.44v-17.44z m0-34.88128H127.68v17.44h17.44v-17.44z m-34.88 34.88128H127.68v-17.44H110.24v17.44z m0-69.76H92.8v17.44h17.44v-17.44z m0 104.64H127.68v-17.44H110.24v17.44z m0-69.76128H127.68v-17.44H110.24v17.44z m348.8 191.84128h17.44128v-17.44h-17.44128v17.44z m52.32-87.2h-17.44v17.44H511.36v-17.44z m0 69.76h-17.44v17.44H511.36v-17.44z m0-34.88h-17.44v17.44H511.36v-17.44z m-34.88 34.88h17.44v-17.44H476.48v17.44z m-17.44-17.44h17.44128v-17.44h-17.44128v17.44z m0-69.76h17.44128v-17.44h-17.44128v17.44z m34.88 0H511.36v-17.44h-17.44v17.44z m-17.44 17.44h17.44v-17.44H476.48v17.44z m-17.44 17.43872h17.44128v-17.44h-17.44128v17.44z m17.44 17.44128h17.44v-17.44H476.48v17.44z m0-174.4h-17.44128v17.44h17.44128v-17.44z m0 34.87872h-17.44128v17.44h17.44128v-17.44z m0 34.88128h-17.44128v17.44h17.44128v-17.44z m34.88 0h-17.44v17.44H511.36v-17.44z m0-34.88128h-17.44v17.44H511.36v-17.44z m-17.44-17.43872H511.36v-17.44h-17.44v17.44z m-17.44 52.32h17.44v-17.44H476.48v17.44z m0-34.88128h17.44v-17.44H476.48v17.44z m0-34.87872h17.44v-17.44H476.48v17.44z m0 104.64h17.44v-17.44H476.48v17.44zM92.8 695.12064h17.44v-17.44128H92.8v17.44128z m17.44 17.44H127.68v-17.44H110.24v17.44z m17.44-17.44h17.44v-17.44128H127.68v17.44128z m17.44-52.32H127.68v17.44h17.44v-17.44z m-34.88 0H127.68v-17.44H110.24v17.44z m34.88-34.88H127.68v17.44h17.44v-17.44z m-34.88 0H92.8v17.44h17.44v-17.44z m0 34.88H92.8v17.44h17.44v-17.44z m0-34.88H127.68v-17.44128H110.24v17.44128z m0-34.88H92.8v17.43872h17.44v-17.43872z m0 104.63872H127.68v-17.43872H110.24v17.43872z m0-104.63872H127.68v-17.44H110.24v17.44z m17.44 17.43872h17.44v-17.43872H127.68v17.43872z m610.4 52.32128h17.44v-17.44h-17.44v17.44z m-17.44128-17.44h17.44128v-17.44h-17.44128v17.44z m0-34.88128h17.44128v-17.43872h-17.44128v17.43872z m52.32128 17.44128H755.52v17.44h17.44v-17.44z m-17.44-52.32h-17.44v17.44h17.44v-17.44z m-17.44 52.32h17.44v-17.44128h-17.44v17.44128z m34.88-34.88H755.52v17.43872h17.44v-17.43872z m0 156.96H755.52v17.44h17.44v-17.44z m-34.88 0h17.44v-17.44h-17.44v17.44z m0 34.88h17.44v-17.44128h-17.44v17.44128z m-17.44128-17.44h17.44128v-17.44h-17.44128v17.44z m34.88128-34.88h17.44v-17.44H755.52v17.44z m0-34.88128h-17.44v17.44128h17.44v-17.44128z m-34.88128 34.88128h17.44128v-17.44h-17.44128v17.44z" fill="" p-id="1277"></path><path d="M929.92 363.76064H860.16V137.04064c0-38.52544-31.23456-69.76-69.76128-69.76H92.8c-38.52544 0-69.76 31.23456-69.76 69.76v575.52c0 38.52544 31.23456 69.76 69.76 69.76h558.08v104.64c0 38.52416 31.23456 69.76 69.75872 69.76H929.92c38.52416 0 69.76-31.23584 69.76-69.76v-453.44c0-38.52544-31.23584-69.76-69.76-69.76M57.92 137.04064c0-19.26144 15.61728-34.88 34.88-34.88h697.59872c19.264 0 34.88128 15.61856 34.88128 34.88v69.76H57.92v-69.76zM650.88 433.52064v313.92h-558.08c-19.26272 0-34.88-15.61728-34.88-34.88V241.68064h767.36v122.08h-104.64128c-38.52416 0-69.75872 31.23456-69.75872 69.76m313.92128 453.44c0 19.26272-15.61856 34.87872-34.88128 34.87872H720.63872c-19.26144 0-34.87872-15.616-34.87872-34.87872v-52.32128h279.04128v52.32128z m0-87.2H685.76v-279.04h279.04128v279.04z m0-313.92H685.76v-52.32c0-19.26272 15.61728-34.88 34.87872-34.88H929.92c19.26272 0 34.88128 15.61728 34.88128 34.88v52.32z" fill="" p-id="1278"></path></svg>